<?xml version="1.0" encoding="utf-8"?>
<!-- Generator: Adobe Illustrator 28.3.0, SVG Export Plug-In . SVG Version: 6.00 Build 0)  -->
<svg version="1.1" id="Layer_1" xmlns="http://www.w3.org/2000/svg" xmlns:xlink="http://www.w3.org/1999/xlink" x="0px" y="0px"
	 viewBox="0 0 707.67 707.67" style="enable-background:new 0 0 707.67 707.67;" xml:space="preserve">
<style type="text/css">
	.st0{display:none;fill-rule:evenodd;clip-rule:evenodd;fill:none;}
	.st1{fill-rule:evenodd;clip-rule:evenodd;fill:none;}
	.st2{fill-rule:evenodd;clip-rule:evenodd;fill:#FFFFFF;}
</style>
<path class="st0" d="M-143.33,210.67"/>
<g>
	<polygon class="st1" points="387.67,452.91 387.67,452.67 150.17,452.67 150.17,447.67 387.67,447.67 387.67,355.17 175.17,355.17 
		175.17,352.17 387.67,352.17 387.67,259.67 150.17,259.67 150.17,254.67 387.67,254.67 387.67,254.43 487.17,353.67 	"/>
	<path class="st2" d="M353.84-0.33C158.42-0.33,0,158.09,0,353.51c0,195.41,158.42,353.83,353.84,353.83
		c195.41,0,353.83-158.42,353.83-353.83C707.67,158.09,549.25-0.33,353.84-0.33z M150.17,452.34L150.17,452.34v-5v0h237.5v-92.5
		h-212.5v0v-3v0h212.5v-92.5h-237.5v0v-5v0h237.5v-0.24v0l54.39,54.25l45.11,44.99l0,0l0,0l-99.5,99.24v-0.01v-0.23H150.17z
		 M575.17,353.34l-188,187.5v0v-45.88v0l14.95-14.91l127.05-126.71l-142-141.62v0v-45.88v0L575.17,353.34L575.17,353.34
		L575.17,353.34z"/>
</g>
</svg>
